<?xml version="1.0" encoding="UTF-8" standalone="no"?>
<svg
   xmlns:dc="http://purl.org/dc/elements/1.1/"
   xmlns:cc="http://creativecommons.org/ns#"
   xmlns:rdf="http://www.w3.org/1999/02/22-rdf-syntax-ns#"
   xmlns:svg="http://www.w3.org/2000/svg"
   xmlns="http://www.w3.org/2000/svg"
   viewBox="0 0 3200 2266.6667"
   height="2266.6667"
   width="3200"
   xml:space="preserve"
   id="svg2"
   version="1.1"><metadata
     id="metadata8"><rdf:RDF><cc:Work
         rdf:about=""><dc:format>image/svg+xml</dc:format><dc:type
           rdf:resource="http://purl.org/dc/dcmitype/StillImage" /></cc:Work></rdf:RDF></metadata><defs
     id="defs6" /><g
     transform="matrix(1.3333333,0,0,-1.3333333,0,2266.6667)"
     id="g10"><g
       transform="scale(0.1)"
       id="g12"><g
         transform="scale(1.47239)"
         id="g14"><path
           id="path16"
           style="fill:#dbd2d2;fill-opacity:1;fill-rule:nonzero;stroke:none"
           d="M 16300,0 H 0 V 11545.8 H 16300 V 0" /></g><path
         id="path18"
         style="fill:#937d6f;fill-opacity:1;fill-rule:nonzero;stroke:none"
         d="m 3003.7,6480.3 c -140.18,309.3 -262.64,678.95 -87.82,974.31 6.98,11.79 17.17,21.62 29.61,27.36 44.09,20.32 78.02,-22.35 100.14,-58.81 236.4,-389.54 520.58,-750.06 844.14,-1070.86 81.74,-81.1 166.29,-160 237.56,-250.4 245.79,-311.8 466.26,-761.6 483.34,-1157.2 -14.19,-42.6 -197.89,-1.7 -220.68,7 -412.13,157.7 -769.85,453.9 -1001.51,829.5 -67.82,109.9 -124.95,226 -181.98,341.9 -27.31,55.6 -54.62,111.1 -81.93,166.6 l -120.87,190.6" /><path
         id="path20"
         style="fill:#ffffff;fill-opacity:1;fill-rule:nonzero;stroke:none"
         d="m 4286.34,9358.78 c 0,938.22 -759.57,1699.02 -1697.31,1700.92 -941.71,2 -1701.499,-753.5 -1704.616,-1695.17 C 882.016,8639.39 1333.4,8019.4 1970.7,7772.31 c 190.75,-73.95 317.79,-255.8 317.79,-460.38 V 5633.5 h 593.77 v 1678.42 c 0,202.54 123.48,385.79 312.56,458.37 638.38,245.07 1091.52,863.84 1091.52,1588.49" /><path
         id="path22"
         style="fill:#937d6f;fill-opacity:1;fill-rule:nonzero;stroke:none"
         d="m 2287.34,7164.15 c 25.49,-46.64 66.83,-79.22 109.9,-110.37 424.4,-306.88 848.8,-613.78 1273.2,-920.78 286.37,-207.1 580.85,-422.9 760.64,-727.1 149.43,-252.9 208.05,-548.3 249.08,-839.1 97.37,-690.1 109.18,-1389 120.84,-2085.9 C 4806.25,2167.3 4907.74,412.102 4913.53,0 H 2844.2 c 39.7,608 208,2378.4 232.15,2841.9 8.76,168.2 15.75,339 -22.51,503.1 -101.16,433.6 -487.39,729.4 -828.94,1015.1 -157.16,131.4 -314.16,273.9 -399.17,460.3 -124.56,273.2 -76.02,598.5 -186.89,877.5 -55.12,138.7 -148.7,294.6 -73.96,423.8 40.3,69.7 126.04,118.7 128.35,199.2 0.79,27.4 -8.93,53.9 -19.33,79.3 -29.83,72.8 -66.66,143.7 -81.29,221 -14.62,77.3 -2.97,165 52.81,220.5 22.61,22.4 52.22,39.8 65.25,68.9 11.61,25.9 7.52,55.7 6.27,84.1 -6.12,139.17 67.99,279.06 186.57,352.15 113.95,70.24 264.55,76.09 384.01,16.1 l -0.18,-198.8" /><path
         id="path24"
         style="fill:#66544c;fill-opacity:1;fill-rule:nonzero;stroke:none"
         d="m 1729.95,6926.2 c 125.3,-168.3 250.6,-336.7 375.91,-505 35.7,-48 71.41,-96 107.12,-143.9 7.45,-10.1 24.49,-0.3 16.94,9.9 -125.3,168.3 -250.6,336.7 -375.9,505 -35.71,48 -71.42,96 -107.13,143.9 -7.45,10.1 -24.49,0.3 -16.94,-9.9 v 0" /><path
         id="path26"
         style="fill:#66544c;fill-opacity:1;fill-rule:nonzero;stroke:none"
         d="m 1697.3,6311.7 c 70.48,-134.5 140.95,-268.9 211.43,-403.4 19.95,-38 39.91,-76.1 59.86,-114.2 5.87,-11.2 22.81,-1.3 16.94,9.9 -70.47,134.5 -140.95,268.9 -211.42,403.4 -19.96,38 -39.91,76.1 -59.87,114.2 -5.86,11.2 -22.8,1.2 -16.94,-9.9 v 0" /><path
         id="path28"
         style="fill:#66544c;fill-opacity:1;fill-rule:nonzero;stroke:none"
         d="m 1653.45,5642.9 c 76.67,-107.5 146.25,-219.9 207.99,-336.6 17.57,-33.2 34.5,-66.7 50.81,-100.5 5.49,-11.4 22.41,-1.5 16.94,9.9 -57.32,118.9 -122.46,233.9 -195.05,344.2 -20.66,31.3 -41.93,62.3 -63.75,92.9 -7.27,10.2 -24.3,0.4 -16.94,-9.9 v 0" /><path
         id="path30"
         style="fill:#66544c;fill-opacity:1;fill-rule:nonzero;stroke:none"
         d="m 2888.72,6684.9 c 99.53,-74.8 199.57,-148.9 300.12,-222.3 100.54,-73.4 201.59,-146.2 303.14,-218.2 57.52,-40.8 115.21,-81.4 173.05,-121.8 10.38,-7.2 20.2,9.8 9.91,17 -102.1,71.2 -203.72,143.2 -304.83,215.8 -101.11,72.6 -201.73,146 -301.84,220 -56.71,41.9 -113.26,84.1 -169.65,126.5 -10.09,7.5 -19.88,-9.5 -9.9,-17 v 0" /><path
         id="path32"
         style="fill:#cea446;fill-opacity:1;fill-rule:nonzero;stroke:none"
         d="m 4886.78,4111.3 c -14.21,64.2 -59.3,120.2 -117.53,150 -17.29,8.8 -35.22,15.6 -53.56,20.5 l 7.09,-67.2 c 0.23,-0.1 2.29,-1 2.98,-1.2 -0.52,0.2 -0.29,0.1 1.79,-0.7 4.23,-1.7 0.57,-0.3 -1.79,0.7 0.8,-0.4 3.43,-1.5 4.14,-1.8 4.15,-1.9 8.25,-4 12.27,-6.2 7.25,-3.9 14.27,-8.2 21,-12.9 1.38,-1 2.74,-2.1 4.15,-3.1 -0.12,0.1 -0.25,0.3 -0.37,0.4 -4.84,3.9 1.8,-1.3 1.04,-0.8 -0.23,0.1 -0.44,0.3 -0.67,0.4 3.03,-2.5 6.05,-5 8.95,-7.6 5.5,-5 10.72,-10.3 15.61,-15.9 2.21,-2.6 4.16,-5.4 6.47,-7.9 -7.74,8.1 0.57,-0.9 2.59,-3.8 3.87,-5.7 7.45,-11.5 10.7,-17.6 1.48,-2.7 2.9,-5.5 4.24,-8.3 0.54,-1.1 1.05,-2.2 1.57,-3.4 -0.07,0.3 -0.16,0.5 -0.23,0.8 0.07,-0.3 0.16,-0.5 0.24,-0.8 0.16,-0.3 0.33,-0.7 0.49,-1 2.23,-4.9 0.56,-2.3 -0.49,1 h -0.01 c 3.22,-11.5 8.05,-22.4 10.39,-34.4 0.42,-2.1 0.75,-4.3 1.1,-6.4 -0.05,0.5 -0.11,1 -0.16,1.6 -0.49,5.4 1.3,-8.2 0.5,-3.6 -0.12,0.6 -0.23,1.3 -0.34,2 0.11,-1 0.22,-2 0.31,-3 0.45,-5.2 0.65,-10.4 0.54,-15.6 -0.27,-12.6 -1.53,-18.9 -5.22,-32.3 -5.2,-18.8 -10.62,-30.6 -19.42,-47.5 -15.75,-30.2 -34.1,-59.2 -52.57,-87.8 -17.51,-27.1 -35.77,-53.7 -54.75,-79.8 -9.35,-12.9 -18.9,-25.6 -28.58,-38.3 0.53,0.7 0.61,0.8 -0.39,-0.5 0.13,0.2 0.25,0.4 0.39,0.5 -0.96,-1.2 -3.37,-4.3 -3.88,-5 -2.48,-3.1 -4.97,-6.3 -7.48,-9.5 -5,-6.3 -10.05,-12.6 -15.14,-18.8 -40.73,-50.1 -84.12,-97.9 -129.87,-143.4 -45.42,-45.2 -93.16,-88 -142.92,-128.3 -6.28,-5.1 -12.58,-10.1 -18.92,-15.1 -3.16,-2.5 -6.34,-5 -9.52,-7.5 -1.2,-0.9 -2.39,-1.9 -3.59,-2.8 -0.35,-0.3 -0.53,-0.4 -0.65,-0.5 1.01,0.8 -0.55,-0.4 0,0 -0.28,-0.2 -0.68,-0.5 -1.46,-1.1 -12.84,-9.8 -25.75,-19.5 -38.82,-29 -26.12,-19 -52.72,-37.3 -79.76,-55 -54.09,-35.3 -109.96,-68 -167.31,-97.7 -28.67,-14.9 -57.71,-29.1 -87.1,-42.5 -14.23,-6.5 -28.53,-12.8 -42.92,-19 -0.32,-0.1 -1.9,-0.8 -3.03,-1.3 0.81,0.4 1.11,0.5 -0.23,-0.1 -1.58,-0.6 -0.91,-0.3 0.23,0.1 -1.09,-0.4 -3.12,-1.3 -3.5,-1.4 -3.25,-1.4 -6.52,-2.8 -9.78,-4.1 -7.93,-3.3 -15.88,-6.5 -23.86,-9.6 -119.51,-47.4 -243.84,-82.7 -370.55,-104.5 -15.89,-2.7 -31.82,-5.2 -47.79,-7.5 -3.99,-0.6 -7.98,-1.2 -11.97,-1.7 -0.37,-0.1 -1.36,-0.2 -2.13,-0.3 0.46,0 0.92,0.1 1.38,0.2 -3.29,-0.5 -2.61,-0.4 -1.38,-0.2 -1.54,-0.2 -3.07,-0.4 -4.62,-0.6 -7.99,-1.1 -16,-2 -24.01,-3 -32.07,-3.7 -64.24,-6.5 -96.46,-8.4 -34.54,-2.1 -69.18,-3.3 -103.79,-3 -19.27,0.2 -38.54,0.9 -57.76,2.4 -19.97,1.6 -32.91,3.1 -52.29,6.8 -34.96,6.6 -68.73,16.8 -98.32,32.6 -6.52,3.5 -12.91,7.3 -19.14,11.3 -3.33,2.1 -6.63,4.3 -9.87,6.5 -1.62,1.2 -3.23,2.3 -4.83,3.5 -0.34,0.2 -2.82,2.1 -4,3 0.87,-0.7 1.33,-1.1 0.04,-0.1 -0.98,0.8 -0.74,0.6 -0.04,0.1 -0.93,0.8 -2.34,1.9 -2.62,2.1 -1.53,1.3 -3.04,2.6 -4.55,3.8 -2.62,2.3 -5.2,4.6 -7.74,6.9 -6.14,5.7 -12.02,11.7 -17.6,17.9 -2.61,2.9 -5.16,5.9 -7.64,8.9 -0.55,0.7 -1.09,1.4 -1.63,2 0.44,-0.5 0.43,-0.5 -1.12,1.4 0.37,-0.4 0.75,-0.9 1.12,-1.4 -0.44,0.6 -1.31,1.8 -1.56,2.1 -4.77,6.8 -9.37,13.6 -13.5,20.7 -3.61,6.3 -6.87,12.8 -9.87,19.3 -2.54,5.6 -0.72,1.8 -0.25,0.6 -0.7,1.8 -1.4,3.6 -2.06,5.4 -1.48,4 -2.83,8.1 -4.04,12.3 -2.02,6.9 -3.54,14 -4.86,21.1 -0.09,0.5 -0.16,0.8 -0.23,1.2 0.04,-0.3 0.06,-0.6 0.09,-0.9 -0.15,1.3 -0.83,4.9 -0.09,0.9 -0.19,1.7 -0.37,3.3 -0.51,5 -0.26,2.9 -0.43,5.9 -0.48,8.8 -0.07,4.5 0.22,9 0.54,13.4 0.02,0.2 0.06,0.9 0.12,1.6 -0.02,-0.1 -0.05,-0.3 -0.07,-0.4 -0.75,-4.2 -0.18,-0.8 0.15,1.3 0.06,0.6 0.13,1.2 0.19,1.3 0.01,0 -0.08,-0.6 -0.19,-1.3 -0.03,-0.3 -0.06,-0.6 -0.08,-0.9 0.43,2.5 0.81,4.9 1.29,7.4 2.22,11.2 5.41,22.2 9.19,32.9 1.85,5.3 3.9,10.5 6,15.7 -0.45,-1 -0.48,-1 0.68,1.8 -0.24,-0.6 -0.44,-1.2 -0.68,-1.8 0.58,1.3 1.87,4.4 2.38,5.5 1.37,3 2.78,6 4.22,9 12.46,25.9 27.34,50.7 43.65,74.3 4.33,6.3 8.77,12.5 13.3,18.6 2.01,2.8 4.04,5.4 6.08,8.1 0.17,0.3 0.22,0.3 0.34,0.5 -2.5,-3.2 1.93,2.5 0,0 0.05,0.1 0.06,0.1 0.13,0.1 1.5,2 3,3.9 4.51,5.8 7.99,10 16.25,19.8 24.76,29.4 0,0 -8.25,23.6 -27.09,62.1 -4.44,-4.7 -8.81,-9.4 -13.1,-14.1 -42.35,-47 -80.8,-99.5 -107.78,-156.8 -11.34,-24.1 -21.56,-49.4 -26.62,-75.6 -5.53,-28.7 -4.57,-56.6 2.79,-85 17.63,-68.1 67.71,-124.7 126.83,-160.8 68.17,-41.6 149.87,-55 228.51,-57.8 70.11,-2.5 140.8,1.8 210.51,9.2 134.16,14.3 266.56,42.9 394.54,85.6 128.35,42.9 252.47,99.2 369.27,167.5 116.76,68.3 226.59,149 326.8,239.8 99.83,90.6 189.67,191.9 267.77,301.7 19.3,27.1 37.83,54.8 55.55,83 19.33,30.7 38.86,61.8 53.27,95.2 18.4,42.7 26.02,86.2 15.95,131.6" /><path
         id="path34"
         style="fill:#151c28;fill-opacity:1;fill-rule:nonzero;stroke:none"
         d="m 2972.06,7382.38 c 5.82,-31.49 18.85,-61.11 31.78,-90.41 11.45,-25.94 22.9,-51.88 34.35,-77.82 12.06,-27.31 24.7,-55.46 46.74,-75.59 22.04,-20.13 56.22,-30.17 82.35,-15.74 20.76,11.46 30.47,33.81 34.32,57.97 -54.02,79.46 -106.12,160.23 -155.97,242.37 -14.38,23.7 -33.77,49.9 -57.67,59.85 l -3.96,-7.29 c -15.79,-27.86 -17.77,-61.86 -11.94,-93.34" /><g
         transform="scale(1.08094)"
         id="g36"><path
           id="path38"
           style="fill:#937d6f;fill-opacity:1;fill-rule:nonzero;stroke:none"
           d="m 14813.4,5793.17 c -129.7,286.23 -243,628.16 -81.3,901.41 6.5,10.91 15.9,20 27.5,25.3 40.7,18.8 72.1,-20.67 92.6,-54.4 218.7,-360.35 481.6,-693.85 780.9,-990.72 75.7,-74.93 153.8,-147.93 219.8,-231.56 227.4,-288.45 431.4,-704.57 447.1,-1070.54 -13.1,-39.41 -183.1,-1.57 -204.1,6.47 -381.3,145.8 -712.2,419.91 -926.6,767.29 -62.7,101.77 -115.5,209.17 -168.3,316.39 -25.2,51.35 -50.6,102.69 -75.8,154.13 l -111.8,176.23" /></g><g
         transform="scale(1.06105)"
         id="g40"><path
           id="path42"
           style="fill:#ffffff;fill-opacity:1;fill-rule:nonzero;stroke:none"
           d="m 16300,8614.71 c 0,884.22 -715.9,1601.29 -1599.6,1603.09 -887.6,1.9 -1603.6,-710.13 -1606.6,-1597.66 -2.2,-683.42 423.2,-1267.75 1023.8,-1500.61 179.8,-69.7 299.5,-241.08 299.5,-433.89 V 5103.72 h 559.6 v 1581.91 c 0,190.87 116.4,363.59 294.6,432 601.7,230.96 1028.7,814.13 1028.7,1497.08" /></g><g
         transform="scale(1.09846)"
         id="g44"><path
           id="path46"
           style="fill:#937d6f;fill-opacity:1;fill-rule:nonzero;stroke:none"
           d="m 13925,6323.4 c 23.3,-42.42 60.9,-72.1 100.1,-100.51 386.3,-279.39 772.7,-558.78 1159.1,-838.17 260.7,-188.54 528.8,-384.99 692.5,-662.02 136,-230.14 189.3,-499.06 226.7,-763.8 88.6,-628.24 99.4,-1264.58 110,-1898.93 4.8,-285.49 81.4,-1663.961 86.6,-2059.97 h -1852.1 c 35.5,584.362 173.5,1966.57 195.4,2388.62 8,153.12 14.4,308.61 -20.5,457.91 -92.1,394.83 -443.7,664.02 -754.6,924.11 -143.1,119.71 -286,249.44 -363.4,419.13 -113.4,248.63 -69.2,544.86 -170.1,798.85 -50.2,126.27 -135.4,268.19 -67.3,385.81 36.7,63.36 114.7,108.06 116.8,181.25 0.7,24.95 -8.1,49.16 -17.6,72.2 -27.2,66.27 -60.7,130.91 -74,201.28 -13.3,70.37 -2.7,150.12 48.1,200.64 20.5,20.49 47.5,36.24 59.3,62.73 10.6,23.67 6.9,50.8 5.8,76.65 -5.6,126.63 61.9,254.01 169.8,320.55 103.7,63.94 240.8,69.27 349.6,14.66 l -0.2,-180.99" /></g><path
         id="path48"
         style="fill:#66544c;fill-opacity:1;fill-rule:nonzero;stroke:none"
         d="m 14738.7,6708.1 c 125.3,-168.4 250.6,-336.7 375.9,-505.1 35.7,-47.9 71.4,-95.9 107.1,-143.9 7.5,-10 24.5,-0.2 17,9.9 -125.3,168.4 -250.6,336.7 -375.9,505.1 -35.7,47.9 -71.4,95.9 -107.1,143.9 -7.5,10 -24.5,0.2 -17,-9.9 v 0" /><path
         id="path50"
         style="fill:#66544c;fill-opacity:1;fill-rule:nonzero;stroke:none"
         d="m 14706.1,6093.5 c 70.4,-134.4 140.9,-268.9 211.4,-403.3 20,-38.1 39.9,-76.2 59.9,-114.2 5.8,-11.2 22.8,-1.3 16.9,9.9 -70.5,134.4 -140.9,268.9 -211.4,403.3 -20,38.1 -39.9,76.2 -59.9,114.2 -5.9,11.2 -22.8,1.3 -16.9,-9.9 v 0" /><path
         id="path52"
         style="fill:#66544c;fill-opacity:1;fill-rule:nonzero;stroke:none"
         d="m 14662.2,5424.7 c 76.7,-107.4 146.3,-219.9 208,-336.5 17.6,-33.2 34.5,-66.7 50.8,-100.6 5.5,-11.3 22.4,-1.4 17,9.9 -57.4,118.9 -122.5,234 -195.1,344.2 -20.7,31.4 -41.9,62.4 -63.7,92.9 -7.3,10.2 -24.3,0.4 -17,-9.9 v 0" /><g
         transform="scale(1.02417)"
         id="g54"><path
           id="path56"
           style="fill:#66544c;fill-opacity:1;fill-rule:nonzero;stroke:none"
           d="m 15522.3,6314.18 c 97.1,-73.04 194.9,-145.39 293,-217.16 98.2,-71.66 196.9,-142.65 296,-213.05 56.2,-39.83 112.5,-79.47 169,-118.82 10.1,-7.13 19.7,9.47 9.6,16.5 -99.6,69.61 -198.9,139.82 -297.6,210.8 -98.7,70.89 -197,142.46 -294.7,214.71 -55.4,41.01 -110.6,82.12 -165.6,123.52 -9.9,7.42 -19.5,-9.18 -9.7,-16.5 v 0" /></g><g
         transform="scale(1.0985)"
         id="g58"><path
           id="path60"
           style="fill:#cea446;fill-opacity:1;fill-rule:nonzero;stroke:none"
           d="m 16290.9,3544.09 c -13,58.36 -54,109.43 -107.1,136.47 -15.7,8.1 -32,14.19 -48.7,18.75 l 6.4,-61.27 c 0.3,-0.09 2.1,-0.82 2.7,-1.09 -0.4,0.27 -0.2,0.18 1.7,-0.64 3.8,-1.54 0.5,-0.18 -1.7,0.64 0.8,-0.27 3.2,-1.27 3.9,-1.64 3.7,-1.73 7.4,-3.55 11.1,-5.55 6.6,-3.55 13,-7.47 19.1,-11.84 1.3,-0.82 2.5,-1.82 3.8,-2.73 -0.1,0.1 -0.3,0.18 -0.4,0.28 -4.3,3.64 1.7,-1.09 1,-0.73 -0.2,0.18 -0.4,0.27 -0.6,0.45 2.7,-2.27 5.5,-4.55 8.1,-7.01 5,-4.55 9.8,-9.37 14.3,-14.47 2,-2.28 3.7,-4.92 5.8,-7.1 -7,7.37 0.6,-0.82 2.4,-3.55 3.6,-5.1 6.8,-10.47 9.7,-15.93 1.4,-2.46 2.7,-5.01 4,-7.56 0.4,-1.09 0.9,-2.09 1.3,-3.09 -0.1,0.18 -0.1,0.45 -0.2,0.63 0.1,-0.18 0.1,-0.45 0.2,-0.63 0.2,-0.37 0.4,-0.64 0.5,-1.01 2,-4.37 0.5,-2.09 -0.5,1.01 v 0 c 2.9,-10.56 7.4,-20.49 9.5,-31.32 0.4,-2 0.7,-3.91 1,-5.92 0,0.55 -0.1,1 -0.2,1.46 -0.4,5.01 1.3,-7.38 0.5,-3.19 -0.1,0.55 -0.2,1.19 -0.3,1.73 0.1,-0.9 0.2,-1.81 0.3,-2.64 0.4,-4.73 0.6,-9.46 0.5,-14.2 -0.3,-11.47 -1.4,-17.3 -4.8,-29.49 -4.7,-17.02 -9.7,-27.86 -17.7,-43.24 -14.3,-27.49 -31,-53.8 -47.8,-79.84 -16,-24.67 -32.6,-48.97 -49.9,-72.73 -8.5,-11.75 -17.2,-23.31 -26,-34.78 0.5,0.64 0.6,0.73 -0.4,-0.45 0.2,0.09 0.3,0.27 0.4,0.45 -0.8,-1.09 -3.1,-4 -3.5,-4.55 -2.2,-2.91 -4.5,-5.83 -6.8,-8.65 -4.5,-5.74 -9.2,-11.47 -13.8,-17.2 -37.1,-45.52 -76.6,-89.12 -118.3,-130.54 -41.3,-41.06 -84.7,-80.02 -130.1,-116.71 -5.6,-4.64 -11.4,-9.28 -17.2,-13.84 -2.9,-2.27 -5.7,-4.55 -8.6,-6.73 -1.1,-0.91 -2.2,-1.73 -3.3,-2.55 -0.3,-0.27 -0.4,-0.37 -0.6,-0.46 1,0.64 -0.5,-0.45 0,0 -0.2,-0.18 -0.6,-0.54 -1.3,-1 -11.6,-8.92 -23.5,-17.75 -35.3,-26.4 -23.9,-17.29 -48,-34.04 -72.7,-50.07 -49.2,-32.22 -100,-61.9 -152.3,-89.02 -26.1,-13.57 -52.5,-26.4 -79.2,-38.6 -13,-5.92 -26,-11.75 -39.1,-17.3 -0.3,-0.09 -1.7,-0.73 -2.7,-1.18 0.7,0.27 1,0.45 -0.3,-0.09 -1.5,-0.64 -0.8,-0.37 0.3,0.09 -1,-0.46 -2.9,-1.19 -3.2,-1.37 -3,-1.18 -6,-2.46 -8.9,-3.64 -7.3,-3 -14.5,-5.92 -21.8,-8.83 -108.8,-43.06 -221.9,-75.19 -337.3,-95.04 -14.4,-2.55 -29,-4.82 -43.5,-6.92 -3.6,-0.54 -7.3,-1 -10.9,-1.54 -0.4,0 -1.3,-0.19 -1.9,-0.28 0.3,0.09 0.8,0.18 1.3,0.18 -3.1,-0.36 -2.5,-0.27 -1.3,-0.18 -1.5,-0.18 -2.8,-0.36 -4.2,-0.54 -7.3,-0.92 -14.7,-1.83 -21.9,-2.64 -29.2,-3.37 -58.5,-5.92 -87.8,-7.74 -31.5,-1.82 -63,-2.91 -94.5,-2.64 -17.6,0.09 -35.1,0.72 -52.6,2.09 -18.1,1.46 -30,2.92 -47.6,6.19 -31.8,6.1 -62.6,15.39 -89.5,29.77 -5.9,3.19 -11.8,6.56 -17.4,10.2 -3.1,1.91 -6,3.91 -9,6 -1.5,1.01 -2.9,2.1 -4.4,3.19 -0.3,0.18 -2.5,1.91 -3.6,2.73 0.8,-0.64 1.2,-1 0,-0.09 -0.9,0.73 -0.7,0.54 0,0.09 -0.9,0.64 -2.2,1.73 -2.4,1.91 -1.4,1.09 -2.8,2.28 -4.2,3.46 -2.3,2 -4.7,4.1 -7,6.28 -5.6,5.19 -11,10.56 -16,16.21 -2.4,2.73 -4.7,5.37 -7,8.19 -0.5,0.55 -1,1.18 -1.5,1.82 0.4,-0.55 0.4,-0.55 -1,1.27 0.3,-0.45 0.7,-0.81 1,-1.27 -0.3,0.54 -1.2,1.55 -1.4,1.91 -4.3,6.19 -8.5,12.29 -12.3,18.85 -3.3,5.73 -6.2,11.56 -8.9,17.56 -2.4,5.01 -0.8,1.55 -0.3,0.46 -0.6,1.64 -1.3,3.28 -1.8,4.92 -1.4,3.73 -2.7,7.46 -3.8,11.19 -1.8,6.38 -3.2,12.75 -4.3,19.21 -0.1,0.46 -0.2,0.82 -0.3,1.18 0.1,-0.27 0.1,-0.54 0.1,-0.81 -0.1,1.09 -0.7,4.46 -0.1,0.81 -0.2,1.46 -0.3,3.01 -0.5,4.47 -0.1,2.72 -0.3,5.37 -0.4,8.1 0,4.09 0.3,8.1 0.5,12.19 0,0.19 0,0.83 0.1,1.46 0,-0.18 0,-0.27 -0.1,-0.36 -0.6,-3.92 -0.2,-0.82 0.2,1.09 0,0.64 0.1,1.19 0.2,1.19 0,0 -0.1,-0.46 -0.2,-1.19 -0.1,-0.27 -0.1,-0.45 -0.1,-0.73 0.4,2.19 0.7,4.46 1.2,6.65 2,10.19 4.9,20.21 8.4,30.04 1.6,4.82 3.5,9.56 5.4,14.29 -0.4,-1 -0.4,-1 0.7,1.55 -0.3,-0.46 -0.5,-1 -0.7,-1.55 0.6,1.19 1.8,3.92 2.2,5.01 1.2,2.73 2.5,5.46 3.8,8.19 11.3,23.58 24.9,46.07 39.7,67.64 4,5.73 8,11.38 12.1,16.93 1.9,2.46 3.8,4.92 5.6,7.37 0.2,0.19 0.2,0.28 0.3,0.37 -2.3,-2.92 1.8,2.37 0,0 0.1,0.09 0.1,0.09 0.2,0.18 1.3,1.73 2.7,3.46 4.1,5.19 7.2,9.1 14.7,18.03 22.4,26.76 0,0 -7.4,21.49 -24.5,56.62 -4.1,-4.27 -8.1,-8.55 -12,-12.92 -38.6,-42.69 -73.5,-90.49 -98.1,-142.74 -10.4,-21.94 -19.7,-44.88 -24.2,-68.82 -5.1,-26.13 -4.2,-51.43 2.4,-77.29 16.2,-61.99 61.8,-113.52 115.6,-146.38 62,-37.87 136.4,-50.07 208,-52.71 63.8,-2.27 128.1,1.64 191.6,8.47 122.2,13.02 242.7,39.05 359.1,77.92 116.9,39.06 229.9,90.22 336.2,152.48 106.3,62.18 206.3,135.55 297.5,218.3 90.9,82.38 172.7,174.6 243.8,274.56 17.6,24.76 34.4,49.88 50.5,75.55 17.7,28.04 35.4,56.35 48.5,86.76 16.8,38.87 23.7,78.47 14.6,119.79" /></g><g
         transform="scale(1.01354)"
         id="g62"><path
           id="path64"
           style="fill:#00000a;fill-opacity:1;fill-rule:nonzero;stroke:none"
           d="m 16089.1,2764.76 c 3.3,-57.51 52.4,-101.42 109.9,-98.07 57.3,3.36 101,52.69 97.6,110.21 -3.3,57.52 -52.4,101.43 -109.8,98.08 -57.4,-3.26 -101.1,-52.69 -97.7,-110.22" /></g><g
         transform="scale(1.01941)"
         id="g66"><path
           id="path68"
           style="fill:#00000a;fill-opacity:1;fill-rule:nonzero;stroke:none"
           d="m 16105.6,2651.92 c 101.4,5.89 188.5,-71.8 194.4,-173.62 l -367.4,-21.39 c -5.9,101.72 71.5,189.03 173,195.01" /></g><g
         transform="scale(1.03079)"
         id="g70"><path
           id="path72"
           style="fill:#9997e8;fill-opacity:1;fill-rule:nonzero;stroke:none"
           d="m 15967.8,1369.82 c 332.2,441.12 157.5,1053.47 152.2,1081.11 l -363.3,-21.14 c 1,-5.25 -28.6,-425.02 -328,-676.28 l 539.1,-383.69" /></g><g
         transform="scale(1.01212)"
         id="g74"><path
           id="path76"
           style="fill:#9997e8;fill-opacity:1;fill-rule:nonzero;stroke:none"
           d="m 15705,1776.76 c -37.5,-55.23 56.7,-185.45 210.7,-290.87 153.9,-105.43 309.1,-146.13 346.7,-90.8 37.6,55.23 -56.8,185.45 -210.6,290.87 -153.9,105.43 -309.1,146.03 -346.8,90.8" /></g><g
         transform="scale(1.01471)"
         id="g78"><path
           id="path80"
           style="fill:#7b79c6;fill-opacity:1;fill-rule:nonzero;stroke:none"
           d="m 16276.3,2013.78 c 18.5,111.07 23.7,223.72 14.9,335.18 l -24.2,-1.87 c 23.5,-296.94 -54.5,-602.94 -219.6,-861.63 l 20.5,-13.11 c 106,166.16 176.7,351.43 208.4,541.43" /></g><g
         transform="scale(1.00294)"
         id="g82"><path
           id="path84"
           style="fill:#7b79c6;fill-opacity:1;fill-rule:nonzero;stroke:none"
           d="m 16292.9,2261.64 c 2.6,15.95 5,32.01 7.1,47.96 l -24.4,3.19 c -29.3,-227.33 -119.9,-447.78 -262,-637.62 l 19.7,-14.76 c 134.6,179.87 223.8,386.76 259.6,601.23" /></g><g
         transform="scale(1.00775)"
         id="g86"><path
           id="path88"
           style="fill:#7b79c6;fill-opacity:1;fill-rule:nonzero;stroke:none"
           d="m 16294.3,2368.15 c 4.7,-50.51 5.7,-101.22 4.1,-151.92 -1.8,-56.56 -6.5,-113.13 -14.5,-169.19 -8,-57.36 -19.2,-114.32 -33.7,-170.38 -14.5,-56.07 -32.3,-111.44 -54.2,-165.02 -20.8,-51.01 -45.6,-100.32 -75.2,-146.87 -3.6,-5.45 -7.2,-10.91 -10.7,-16.27 l -18.9,15.58 c 3.7,5.46 7.3,10.92 10.7,16.37 1.1,1.69 -0.8,-1.38 0.3,0.4 0.4,0.6 0.8,1.29 1.2,1.99 0.9,1.38 1.7,2.68 2.6,4.06 1.8,2.88 3.6,5.76 5.3,8.74 6.8,11.31 13.3,22.72 19.5,34.33 12.9,24.01 24.6,48.72 35.4,73.73 11.1,25.8 21.2,52 30.3,78.49 4.6,13.4 9,26.79 13.2,40.29 -0.6,-1.69 0.1,0.4 0.2,0.59 0.2,0.9 0.5,1.69 0.7,2.58 0.5,1.69 1,3.28 1.5,4.97 1.1,3.57 2.2,7.14 3.2,10.71 2,6.95 3.9,13.9 5.9,20.94 15.1,55.47 26.9,111.93 35.6,168.79 8.6,55.08 14.1,110.65 16.7,166.31 0.1,3.28 0.2,6.55 0.4,9.83 0,1.49 0.1,2.87 0.1,4.27 0.1,0.89 0.1,1.68 0.1,2.48 0,0.79 0.1,2.78 0,0.99 0.3,6.65 0.4,13.29 0.5,20.04 0.2,12.8 0.3,25.7 0.1,38.6 -0.3,24.91 -1.3,49.92 -3.3,74.72 -0.4,5.76 -0.9,11.52 -1.4,17.27 l 24.3,2.58 v 0" /></g><g
         transform="scale(1.05558)"
         id="g90"><path
           id="path92"
           style="fill:#ffffff;fill-opacity:1;fill-rule:nonzero;stroke:none"
           d="m 16300,2871.04 c 0,-65.37 -53,-118.33 -118.3,-118.33 -65.4,0 -118.4,52.96 -118.4,118.33 0,65.37 53,118.32 118.4,118.32 65.3,0 118.3,-52.95 118.3,-118.32" /></g><g
         transform="scale(1.07202)"
         id="g94"><path
           id="path96"
           style="fill:#ffffff;fill-opacity:1;fill-rule:nonzero;stroke:none"
           d="m 16300,2960.57 c 0,-64.37 -52.1,-116.51 -116.5,-116.51 -64.4,0 -116.5,52.14 -116.5,116.51 0,64.36 52.1,116.5 116.5,116.5 64.4,0 116.5,-52.14 116.5,-116.5" /></g><path
         id="path98"
         style="fill:#151c28;fill-opacity:1;fill-rule:nonzero;stroke:none"
         d="m 15980.8,7164.24 c 5.8,-31.49 18.9,-61.12 31.8,-90.41 11.5,-25.94 22.9,-51.88 34.4,-77.83 12,-27.3 24.7,-55.4 46.7,-75.6 22,-20.1 56.2,-30.2 82.4,-15.7 20.7,11.4 30.4,33.8 34.3,58 -54.1,79.41 -106.2,160.18 -156,242.32 -14.4,23.7 -33.8,49.9 -57.7,59.84 l -3.9,-7.28 c -15.8,-27.86 -17.8,-61.86 -12,-93.34" /><path
         id="path100"
         style="fill:#564539;fill-opacity:1;fill-rule:nonzero;stroke:none"
         d="m 7689.12,9345.93 c 140.17,309.38 262.63,678.97 87.82,974.37 -6.98,11.8 -17.17,21.6 -29.62,27.3 -44.08,20.3 -78.01,-22.3 -100.14,-58.8 -236.39,-389.52 -520.57,-750.03 -844.14,-1070.87 -81.74,-81.05 -166.29,-159.92 -237.55,-250.32 -245.79,-311.8 -466.26,-761.62 -483.34,-1157.21 14.19,-42.63 197.88,-1.73 220.68,6.99 412.13,157.65 769.84,453.91 1001.5,829.46 67.82,109.94 124.96,226.06 181.98,341.97 27.31,55.52 54.63,111.03 81.94,166.55 l 120.87,190.56" /><path
         id="path102"
         style="fill:#ffffff;fill-opacity:1;fill-rule:nonzero;stroke:none"
         d="m 6406.47,12224.4 c 0,938.2 759.58,1699 1697.31,1701 941.72,2 1701.5,-753.5 1704.62,-1695.2 2.4,-725.1 -448.98,-1345.1 -1086.29,-1592.2 -190.74,-74 -317.79,-255.8 -317.79,-460.4 V 8499.15 h -593.76 v 1678.45 c 0,202.5 -123.49,385.8 -312.56,458.4 -638.38,245 -1091.53,863.8 -1091.53,1588.4" /><path
         id="path104"
         style="fill:#564539;fill-opacity:1;fill-rule:nonzero;stroke:none"
         d="m 8405.48,10029.8 c -25.5,-46.62 -66.84,-79.21 -109.9,-110.35 -424.4,-306.92 -848.8,-613.83 -1273.2,-920.75 C 6736,8791.6 6441.53,8575.8 6261.73,8271.54 6112.31,8018.68 6053.69,7723.3 6012.65,7432.48 5915.29,6742.4 5903.47,6043.4 5891.81,5346.6 5886.57,5033 5697.81,379.699 5691.53,0 h 2244.84 c -43.08,560.199 -295.75,5244 -319.9,5707.6 -8.77,168.2 -15.76,339 22.51,503 101.16,433.7 487.38,729.4 828.94,1015.12 157.15,131.46 314.15,273.96 399.16,460.38 124.56,273.14 76.03,598.49 186.89,877.47 55.13,138.7 148.7,294.64 73.96,423.83 -40.3,69.66 -126.03,118.69 -128.35,199.13 -0.79,27.41 8.94,53.94 19.33,79.32 29.83,72.79 66.67,143.74 81.29,221.04 14.63,77.3 2.98,164.97 -52.81,220.44 -22.61,22.48 -52.22,39.8 -65.24,68.9 -11.62,25.93 -7.53,55.75 -6.28,84.14 6.13,139.16 -67.99,279.03 -186.57,352.13 -113.94,70.3 -264.54,76.1 -384.01,16.1 l 0.19,-198.8" /><path
         id="path106"
         style="fill:#3d302a;fill-opacity:1;fill-rule:nonzero;stroke:none"
         d="m 8962.86,9791.9 c -125.3,-168.35 -250.6,-336.7 -375.9,-505.05 -35.71,-47.98 -71.42,-95.95 -107.12,-143.93 -7.46,-10.01 -24.5,-0.24 -16.95,9.9 125.31,168.35 250.61,336.71 375.91,505.06 35.71,47.97 71.41,95.95 107.12,143.92 7.45,10.02 24.49,0.25 16.94,-9.9 v 0" /><path
         id="path108"
         style="fill:#3d302a;fill-opacity:1;fill-rule:nonzero;stroke:none"
         d="m 8995.51,9177.33 c -70.47,-134.44 -140.95,-268.89 -211.42,-403.34 -19.96,-38.07 -39.91,-76.14 -59.87,-114.21 -5.86,-11.18 -22.8,-1.28 -16.94,9.91 70.48,134.44 140.95,268.89 211.42,403.34 19.96,38.07 39.92,76.14 59.87,114.21 5.86,11.18 22.8,1.28 16.94,-9.91 v 0" /><path
         id="path110"
         style="fill:#3d302a;fill-opacity:1;fill-rule:nonzero;stroke:none"
         d="M 9039.36,8508.54 C 8962.7,8401.11 8893.12,8288.66 8831.37,8172 c -17.57,-33.19 -34.49,-66.73 -50.81,-100.56 -5.48,-11.37 -22.4,-1.44 -16.94,9.9 57.33,118.88 122.47,233.96 195.06,344.19 20.66,31.37 41.92,62.34 63.74,92.91 7.28,10.19 24.3,0.41 16.94,-9.9 v 0" /><path
         id="path112"
         style="fill:#3d302a;fill-opacity:1;fill-rule:nonzero;stroke:none"
         d="m 7804.09,9550.58 c -99.53,-74.79 -199.57,-148.91 -300.11,-222.34 -100.55,-73.42 -201.6,-146.16 -303.14,-218.19 -57.53,-40.82 -115.22,-81.4 -173.06,-121.77 -10.38,-7.24 -20.19,9.76 -9.9,16.95 102.1,71.25 203.71,143.19 304.83,215.83 101.11,72.64 201.72,145.97 301.83,219.99 56.72,41.94 113.26,84.1 169.65,126.47 10.1,7.59 19.89,-9.44 9.9,-16.94 v 0" /><path
         id="path114"
         style="fill:#ffffff;fill-opacity:1;fill-rule:nonzero;stroke:none"
         d="m 5791.81,5346.6 2246.59,-211.7 66.03,-1366.2 4.35,-5.7 c 230.62,-304 375.87,-664 420.71,-1043 L 8851.4,0 H 5591.53 l 200.28,5346.6" /><path
         id="path116"
         style="fill:#151c28;fill-opacity:1;fill-rule:nonzero;stroke:none"
         d="m 7844.74,4494.7 c 0,-92.3 -74.78,-167.1 -167.03,-167.1 -92.25,0 -167.03,74.8 -167.03,167.1 0,92.2 74.78,167 167.03,167 92.25,0 167.03,-74.8 167.03,-167" /><path
         id="path118"
         style="fill:#dbd2d2;fill-opacity:1;fill-rule:nonzero;stroke:none"
         d="m 8106.22,3733.1 -1702.31,145.7 5.12,59.8 1702.3,-145.7 -5.11,-59.8" /><g
         transform="scale(1.30423)"
         id="g120"><path
           id="path122"
           style="fill:#baa090;fill-opacity:1;fill-rule:nonzero;stroke:none"
           d="m 16098.7,5835.96 c 107.5,237.22 201.3,520.61 67.3,747.07 -5.4,9.04 -13.1,16.58 -22.7,20.98 -33.8,15.58 -59.8,-17.13 -76.8,-45.09 -181.2,-298.68 -399.1,-575.1 -647.3,-821.1 -62.6,-62.14 -127.5,-122.62 -182.1,-191.93 -188.4,-239.07 -357.5,-583.95 -370.6,-887.27 10.9,-32.66 151.7,-1.3 169.2,5.37 316,120.84 590.3,348.02 767.9,635.93 52,84.33 95.9,173.36 139.6,262.24 20.9,42.56 41.8,85.13 62.8,127.69 l 92.7,146.11" /></g><g
         transform="scale(1.41828)"
         id="g124"><path
           id="path126"
           style="fill:#ffffff;fill-opacity:1;fill-rule:nonzero;stroke:none"
           d="m 13899.7,7396.22 c 0,661.51 535.5,1197.92 1196.7,1199.32 664,1.39 1199.7,-531.28 1201.9,-1195.26 1.7,-511.28 -316.6,-948.43 -765.9,-1122.64 -134.5,-52.14 -224.1,-180.35 -224.1,-324.6 V 4769.57 h -418.7 v 1183.46 c 0,142.8 -87,272.02 -220.3,323.19 -450.1,172.79 -769.6,609.07 -769.6,1120" /></g><g
         transform="scale(1.38098)"
         id="g128"><path
           id="path130"
           style="fill:#baa090;fill-opacity:1;fill-rule:nonzero;stroke:none"
           d="m 15722.7,6006.84 c -18.4,-33.76 -48.4,-57.36 -79.6,-79.91 -307.3,-222.25 -614.6,-444.49 -921.9,-666.74 -207.4,-149.97 -420.7,-306.23 -550.9,-526.58 -108.1,-183.06 -150.6,-396.97 -180.3,-607.54 -70.5,-499.72 -79,-1005.88 -87.5,-1510.45 C 13898.7,2388.53 13788.3,314.995 13783.9,0 h 1572.7 c -30.2,464.815 -187.8,2541.32 -205.2,2877.03 -6.4,121.79 -11.4,245.47 16.3,364.23 73.2,314.05 352.9,528.18 600.2,735.06 113.8,95.22 227.5,198.41 289.1,333.39 90.1,197.76 55,433.39 135.3,635.42 39.9,100.43 107.7,213.32 53.5,306.87 -29.1,50.45 -91.2,85.95 -92.9,144.21 -0.6,19.84 6.5,39.05 14,57.43 21.6,52.71 48.3,104.08 58.9,160.06 10.5,55.97 2.1,119.46 -38.3,159.62 -16.3,16.28 -37.8,28.83 -47.2,49.9 -8.4,18.78 -5.5,40.37 -4.5,60.92 4.4,100.77 -49.3,202.08 -135.2,255.01 -82.5,50.86 -191.6,55.09 -278,11.65 l 0.1,-143.96" /></g><g
         transform="scale(1.36672)"
         id="g132"><path
           id="path134"
           style="fill:#967b6f;fill-opacity:1;fill-rule:nonzero;stroke:none"
           d="m 16294.4,5895.4 c -91.6,-123.17 -183.3,-246.35 -275,-369.53 -26.1,-35.11 -52.2,-70.2 -78.4,-105.31 -5.4,-7.32 -17.9,-0.17 -12.3,7.24 91.7,123.18 183.3,246.37 275,369.55 26.1,35.09 52.3,70.2 78.4,105.3 5.5,7.33 17.9,0.18 12.3,-7.25 v 0" /></g><g
         transform="scale(1.36863)"
         id="g136"><path
           id="path138"
           style="fill:#967b6f;fill-opacity:1;fill-rule:nonzero;stroke:none"
           d="m 16295.7,5438.17 c -51.5,-98.23 -103,-196.47 -154.5,-294.7 -14.6,-27.82 -29.1,-55.67 -43.7,-83.43 -4.4,-8.18 -16.7,-0.95 -12.4,7.23 51.5,98.22 103,196.46 154.5,294.69 14.5,27.82 29.1,55.63 43.7,83.45 4.3,8.17 16.7,0.94 12.4,-7.24 v 0" /></g><g
         transform="scale(1.3714)"
         id="g140"><path
           id="path142"
           style="fill:#967b6f;fill-opacity:1;fill-rule:nonzero;stroke:none"
           d="m 16294.7,4939.46 c -55.9,-78.31 -106.7,-160.34 -151.7,-245.37 -12.8,-24.21 -25.1,-48.63 -37.1,-73.35 -3.9,-8.24 -16.3,-1.02 -12.3,7.22 41.8,86.69 89.3,170.62 142.2,250.98 15.1,22.9 30.6,45.5 46.5,67.74 5.3,7.44 17.7,0.29 12.4,-7.22 v 0" /></g><g
         transform="scale(1.29579)"
         id="g144"><path
           id="path146"
           style="fill:#967b6f;fill-opacity:1;fill-rule:nonzero;stroke:none"
           d="m 16292.3,6031.92 c -76.9,-57.72 -154.1,-114.92 -231.6,-171.59 -77.6,-56.66 -155.6,-112.8 -234,-168.38 -44.4,-31.5 -88.9,-62.82 -133.5,-93.98 -8,-5.58 -15.6,7.54 -7.7,13.09 78.8,54.98 157.2,110.5 235.3,166.56 78,56.06 155.6,112.65 232.9,169.78 43.7,32.36 87.4,64.89 130.9,97.59 7.8,5.86 15.4,-7.28 7.7,-13.07 v 0" /></g><g
         transform="scale(1.25737)"
         id="g148"><path
           id="path150"
           style="fill:#151c28;fill-opacity:1;fill-rule:nonzero;stroke:none"
           d="m 15192.4,869.674 c 27.5,120.092 65.1,237.716 111.9,351.606 46.4,112.46 102.8,221.89 166.7,325.76 63.8,103.63 135.5,202.25 214.8,294.66 80.1,93.45 167.7,180.62 261.6,260.23 93.2,78.9 192.9,150.08 297.9,212.51 13.1,7.79 26.2,15.43 39.5,22.9 -11.7,8.99 -23.4,17.98 -35.1,26.96 -47,-220.22 -95,-446.56 -211.3,-642.29 -102.3,-172.19 -258.6,-307.31 -441.1,-388.67 -99.9,-44.54 -209,-72.06 -317.6,-79.61 -12.8,-0.87 -23.9,-10.34 -23.9,-23.86 0,-12.17 11,-24.73 23.9,-23.86 102.7,7.16 203.8,30.14 299.3,68.32 96.8,38.57 186.8,90.98 268.1,156.12 80.5,64.5 151.1,141.64 207.8,227.93 63.7,96.79 109.8,204.24 145.7,314.15 35.9,110.23 61.7,223.41 86,336.66 3.1,14.16 6.2,28.31 9.1,42.39 4.3,20.04 -16.2,37.62 -35,26.96 -108.9,-61.8 -212.3,-132.98 -309.5,-211.87 -96.4,-78.18 -186.4,-164.31 -269.2,-256.89 -83.6,-93.84 -160.1,-194.29 -228,-300.07 -66.8,-104.03 -125.4,-213.38 -174.9,-326.71 -37.4,-85.97 -70,-174.1 -96.8,-263.97 l -10.1,-166.536 c 9.3,1.273 17.9,7.717 20.2,17.18 v 0" /></g><g
         transform="scale(1.21353)"
         id="g152"><path
           id="path154"
           style="fill:#151c28;fill-opacity:1;fill-rule:nonzero;stroke:none"
           d="m 15978.6,1522.91 c 49.5,98.14 101.5,195.05 149.4,293.85 45.7,93.94 87.8,190.02 118.3,289.98 30.8,101.11 49,206.18 51.2,311.9 2.5,122.29 -16.2,244.49 -48.8,362.17 -42.3,153.27 -107.2,300.03 -181.2,440.44 -10.8,20.27 -21.6,40.38 -32.8,60.49 -4.7,8.49 -15.1,13.18 -24.6,11.78 -10.5,-1.56 -16.6,-8.16 -20.5,-17.71 -20.5,-49.45 -33.6,-102.6 -45.7,-154.43 -33.2,-142.31 -49.2,-288.82 -53,-434.68 -2.8,-103.25 1,-206.67 10.4,-309.51 9.8,-106.14 23.1,-211.94 31.3,-318.24 10.2,-130.78 17.1,-262.46 12.2,-393.65 -1.2,-30.82 -3.1,-61.72 -6.6,-92.46 -0.3,-2.38 -0.5,-4.77 -0.9,-7.16 -0.5,-4.21 -1.3,-9.23 0,-0.66 -0.5,-3.46 -0.9,-7.01 -1.5,-10.47 -0.7,-3.79 -1.4,-7.5 -2.1,-11.29 -0.1,-0.41 -0.2,-0.82 -0.2,-1.23 -3.1,-13.02 4,-26.79 17.2,-30.41 12.5,-3.46 27.3,4.2 30.4,17.22 8.1,34.2 9.6,70.87 11.6,105.81 6.7,117.59 2,235.84 -5.6,353.27 -6.5,100.86 -15.9,201.55 -27.1,302.01 -11.9,106.63 -20.1,213.25 -20.5,320.55 -0.4,87.84 3.7,175.76 12.9,263.11 6.9,65.1 16.6,128.88 30.6,195.96 9.3,44.58 20.3,88.83 33.5,132.42 6,19.7 13.4,38.81 19.8,58.34 0.3,0.75 0.7,1.57 0.9,2.31 -15,-1.98 -30.1,-3.87 -45.1,-5.85 78,-140.99 147.5,-287.67 195.2,-441.93 36.7,-118.83 59.1,-235.35 60.9,-358.05 0.4,-26.78 -0.3,-53.48 -1.8,-80.18 -0.9,-13.43 -1.9,-26.78 -3.3,-40.13 -0.5,-6.42 -1.3,-12.85 -2,-19.28 -0.4,-2.97 -0.7,-5.93 -1.1,-8.98 -0.2,-1.49 -0.4,-2.97 -0.6,-4.45 -0.5,-4.86 0.3,1.65 -0.1,-1.32 -7,-50.19 -17.4,-99.87 -30.9,-148.82 -13.5,-48.78 -29.9,-96.66 -48.3,-143.8 -4.6,-11.7 -9.3,-23.32 -14.1,-34.85 -1.2,-2.81 -2.2,-5.53 -3.4,-8.25 1.8,4.46 -1.7,-4.03 -2.3,-5.35 -2.5,-5.77 -5,-11.62 -7.5,-17.39 -10.4,-23.65 -21.2,-47.13 -32.2,-70.54 -46.1,-97.31 -96.8,-192.33 -145.7,-288.25 -6.4,-12.36 -12.7,-24.88 -19,-37.33 -6,-11.86 -3.1,-26.78 8.9,-33.78 11,-6.43 27.8,-3.13 33.8,8.82" /></g><g
         transform="scale(1.29919)"
         id="g156"><path
           id="path158"
           style="fill:#151c28;fill-opacity:1;fill-rule:nonzero;stroke:none"
           d="m 16166.7,2010.56 c -32,-120.84 -59.3,-242.92 -80,-366.15 -19.8,-118.23 -33.9,-237.53 -39.3,-357.3 -5,-111.38 -2.6,-223.37 10.8,-334.055 12.7,-104.834 34.4,-208.514 69.4,-308.191 33.4,-95.138 78.3,-186.348 136,-269.092 7.2,-10.391 14.6,-20.551 22.2,-30.632 3.7,-5.006 8.7,-8.777 14.2,-10.391 l -5.5,77.431 c -44.9,66.733 -82.2,138.854 -110.6,212.903 -36.7,95.597 -60.9,195.581 -75.4,296.798 -15.3,106.759 -19.5,216.599 -16.4,324.979 3.2,115.45 14.9,230.68 32.6,344.75 16,103.06 36.8,205.36 61.2,306.73 l -8,126.46 c -5.1,-2.39 -9.3,-7 -11.2,-14.24 v 0" /></g><g
         transform="scale(1.28893)"
         id="g160"><path
           id="path162"
           style="fill:#151c28;fill-opacity:1;fill-rule:nonzero;stroke:none"
           d="m 15797.5,6.20669 c -48,155.40031 -83.2,314.44731 -92,475.43231 -2.8,50.663 -3,101.635 0.8,152.298 0.6,9.619 1.5,19.162 2.5,28.627 0.5,4.346 0.9,8.689 1.5,13.034 0.2,1.785 0.5,3.646 0.7,5.51 1,8.143 -1.2,-8.225 0.7,5.352 1.7,11.792 3.7,23.584 6.1,35.379 2.4,12.102 5.1,24.515 9.2,36.307 l -34.2,-13.886 c 138.4,-102.723 258.9,-231.82 358.4,-370.307 70.2,-97.755 133.7,-202.26 181.5,-312.9711 0.6,-1.1637 1,-2.3275 1.5,-3.4913 -3,7.0583 -0.5,1.3184 0.1,-0.2333 0.9,-2.173 1.8,-4.3459 2.7,-6.5946 1.6,-4.0338 3.3,-8.1463 4.8,-12.2588 2.7,-6.9826 5.2,-14.0408 7.5,-21.181 0.6,-1.7819 2.4,-14.50747 3,-17.2229 h 47.1 c 0.6,6.98252 -0.9,14.1196 -2.7,21.1021 -2.2,8.2251 -4.8,16.2926 -7.9,24.2843 -19.5,51.5173 -43.8,101.1706 -70.1,149.5816 -73.6,135.693 -164.3,263.008 -268.3,377.135 -71.1,78.047 -149.3,149.424 -234.1,212.346 -13,9.54 -29.8,-1.164 -34.3,-13.89 -13.4,-38.479 -17.5,-81.617 -21.1,-121.806 -10.6,-117.927 -0.1,-237.405 19.2,-353.781 16.6,-99.849 41,-198.2259 70.6,-294.972 h 48 c -0.1,1.93959 -0.5,4.03374 -1.2,6.20669 v 0" /></g><g
         transform="scale(1.26212)"
         id="g164"><path
           id="path166"
           style="fill:#151c28;fill-opacity:1;fill-rule:nonzero;stroke:none"
           d="m 16245.7,1081.52 c -0.1,-0.24 -0.1,-0.4 -0.2,-0.64 -1.4,-2.45 -2.5,-5.07 -3.9,-7.44 -0.8,-1.35 -1.7,-2.7 -2.5,-4.05 -0.1,-0.07 -0.3,-0.31 -0.4,-0.47 -0.5,-0.63 -1.4,-1.75 -1.7,-2.06 -1.2,-1.35 -2.4,-2.62 -3.6,-3.81 -0.7,-0.63 -1.5,-1.26 -2.3,-1.98 0,0 0,0 -0.1,0 -2.3,-1.42 -4.8,-2.69 -7.1,-4.03 0,0 -0.1,0 -0.2,0 -1.5,-0.48 -3,-0.96 -4.5,-1.35 -0.3,0 -1.5,-0.24 -2.6,-0.48 -0.6,-0.08 -1.1,-0.08 -1.6,-0.08 -0.5,-0.08 -3.1,-0.16 -5.5,-0.16 15.8,7.45 28.5,17.99 37.9,31.62 -0.2,-0.32 -0.2,-0.72 -0.3,-1.03 -0.4,-1.35 -0.9,-2.7 -1.4,-4.04 z m -30.6,-26.62 c 0,0.07 0.4,0.15 0.8,0.15 -0.4,-0.08 -0.8,-0.15 -0.8,-0.15 z m -14.1,1.98 c -0.5,0.31 -1.2,0.55 -1.9,0.79 0.4,0 1.7,-0.32 2.3,-0.87 -0.1,0 -0.3,0.08 -0.4,0.08 z m 55.3,140.47 c -15.6,39.54 -49.5,71.79 -94.4,70.2 -18.8,-0.71 -28.6,-19.49 -20.5,-35.81 6.7,-13.47 13.4,-27.02 20.2,-40.49 -45.2,-36.68 -46.6,-117.1 -6.6,-159.41 24.7,-26.15 67,-32.09 97.9,-13.23 30.1,18.38 44.2,54.11 45.7,88.1 1.4,33.91 -12,72.82 -42.3,90.64" /></g><g
         transform="scale(1.22424)"
         id="g168"><path
           id="path170"
           style="fill:#151c28;fill-opacity:1;fill-rule:nonzero;stroke:none"
           d="m 16298.2,2582.91 c 0.5,-0.41 1.1,-0.82 1.5,-1.22 0.1,0 0.2,-0.09 0.3,-0.17 -0.3,0.57 -1.3,1.23 -1.8,1.39" /></g><g
         transform="scale(1.22361)"
         id="g172"><path
           id="path174"
           style="fill:#151c28;fill-opacity:1;fill-rule:nonzero;stroke:none"
           d="m 16299.2,2591.91 c 0.1,-0.08 0.1,-0.16 0.1,-0.24 0.2,-0.17 0.5,-0.41 0.7,-0.65 -0.3,0.4 -0.6,0.73 -0.8,0.89" /></g><g
         transform="scale(1.23235)"
         id="g176"><path
           id="path178"
           style="fill:#151c28;fill-opacity:1;fill-rule:nonzero;stroke:none"
           d="m 16209,2559.02 c -0.3,0 -1.3,0.07 -2.3,0.07 -0.9,0.25 -1.9,0.41 -2.9,0.57 -1.2,0.33 -2.3,0.65 -3.5,1.06 0.1,-0.16 0.2,-0.33 0.3,-0.41 -0.1,0.08 -0.2,0.25 -0.4,0.41 -0.1,0 -0.3,0.08 -0.3,0.08 -3.4,0.97 -1.7,1.06 -0.4,0.41 -1.7,1.13 -5.2,2.59 -6.8,3.32 0.1,-0.16 0.2,-0.24 0.2,-0.4 0,0.08 -0.2,0.32 -0.5,0.57 l -0.1,0.07 c -1.8,1.14 -1.9,1.39 -1.4,1.14 -0.4,0.41 -0.9,0.73 -1,0.89 -0.5,0.41 -3.7,3.98 -5.5,5.85 0.8,-1.14 1.3,-2.36 -0.5,0.48 0,0.09 0,0.09 -0.1,0.16 -0.2,0.25 -0.4,0.41 -0.4,0.41 0.1,0 0.2,-0.08 0.2,-0.16 -0.8,1.22 -1.6,2.43 -2.3,3.73 -1.6,2.6 -2.9,5.28 -4.3,8.04 0,0.08 0,0.08 0,0.16 -0.5,1.38 -1,2.68 -1.5,4.05 -0.1,0.57 -0.3,1.14 -0.5,1.71 9.6,-13.8 22.6,-24.59 38.6,-32.21 -0.1,0 -0.1,0 -0.1,0 -1.5,0 -3.1,0 -4.5,0 z m -4.5,0.32 c 0,0.16 0.8,0 1.7,-0.16 -0.9,0 -1.7,0.08 -1.7,0.16 z m 58.4,139.25 c 6.9,13.79 13.8,27.59 20.6,41.38 8.4,16.71 -1.8,35.95 -21,36.68 -46,1.62 -80.7,-31.41 -96.6,-71.9 -28,-16.47 -41.3,-50.31 -43.3,-81.71 -1.9,-32.78 9.2,-70.52 34.8,-92.51 29.2,-24.83 72.2,-27.1 102.9,-3.41 27.4,21.18 39.7,57.86 38.6,91.78 -1.1,30.84 -12.9,60.86 -36,79.69" /></g><g
         transform="scale(1.22481)"
         id="g180"><path
           id="path182"
           style="fill:#151c28;fill-opacity:1;fill-rule:nonzero;stroke:none"
           d="m 16299.3,2576.97 c 0.2,-0.16 0.5,-0.33 0.6,-0.49 h 0.1 c -0.2,0.16 -0.5,0.33 -0.7,0.49" /></g><path
         id="path184"
         style="fill:#b28b75;fill-opacity:1;fill-rule:nonzero;stroke:none"
         d="m 11897.7,5323.3 c -140.1,309.4 -262.6,679 -87.8,974.4 7,11.8 17.2,21.6 29.6,27.3 44.1,20.3 78.1,-22.3 100.2,-58.8 236.4,-389.5 520.6,-750 844.1,-1070.9 81.8,-81 166.3,-159.9 237.6,-250.3 245.8,-311.8 466.2,-761.6 483.3,-1157.2 -14.2,-42.6 -197.9,-1.7 -220.7,7 -412.1,157.6 -769.8,453.9 -1001.5,829.4 -67.8,110 -124.9,226.1 -181.9,342 -27.4,55.5 -54.7,111.1 -82,166.6 l -120.9,190.5" /><path
         id="path186"
         style="fill:#ffffff;fill-opacity:1;fill-rule:nonzero;stroke:none"
         d="m 13180.4,8201.84 c 0,938.2 -759.6,1698.99 -1697.3,1700.96 -941.7,1.99 -1701.52,-753.5 -1704.63,-1695.21 -2.4,-725.13 448.93,-1345.09 1086.33,-1592.19 190.7,-74 317.7,-255.8 317.7,-460.4 V 4476.5 h 593.8 V 6155 c 0,202.5 123.5,385.8 312.6,458.4 638.3,245 1091.5,863.8 1091.5,1588.44" /><path
         id="path188"
         style="fill:#b28b75;fill-opacity:1;fill-rule:nonzero;stroke:none"
         d="m 11181.4,6007.2 c 25.5,-46.6 66.8,-79.2 109.9,-110.4 424.4,-306.9 848.8,-613.8 1273.2,-920.7 286.4,-207.1 580.8,-422.9 760.6,-727.2 149.5,-252.8 208.1,-548.2 249.1,-839 97.4,-690.1 109.2,-1389.1 120.9,-2085.9 5.2,-313.6 20.1,-930.5 25.4,-1324 h -1895.2 c 36.4,580.602 120.9,1221.4 145.1,1685 8.8,168.2 15.8,339 -22.5,503 -101.2,433.7 -487.4,729.4 -829,1015.1 -157.1,131.5 -314.1,274 -399.1,460.4 -124.6,273.1 -76,598.5 -186.9,877.5 -55.1,138.7 -148.7,294.6 -74,423.8 40.3,69.7 126.1,118.7 128.4,199.1 0.8,27.4 -9,54 -19.3,79.3 -29.9,72.8 -66.7,143.8 -81.3,221.1 -14.7,77.3 -3,165 52.8,220.4 22.6,22.5 52.2,39.8 65.2,68.9 11.6,26 7.5,55.8 6.3,84.2 -6.1,139.1 68,279 186.6,352.1 113.9,70.3 264.5,76.1 384,16.1 l -0.2,-198.8" /><path
         id="path190"
         style="fill:#8c6254;fill-opacity:1;fill-rule:nonzero;stroke:none"
         d="m 10624,5769.3 c 125.3,-168.4 250.6,-336.7 375.9,-505.1 35.7,-47.9 71.4,-95.9 107.1,-143.9 7.5,-10 24.5,-0.2 17,9.9 -125.3,168.4 -250.6,336.7 -375.9,505.1 -35.7,47.9 -71.4,95.9 -107.2,143.9 -7.4,10 -24.4,0.2 -16.9,-9.9 v 0" /><path
         id="path192"
         style="fill:#8c6254;fill-opacity:1;fill-rule:nonzero;stroke:none"
         d="m 10591.4,5154.7 c 70.4,-134.4 140.9,-268.9 211.4,-403.3 19.9,-38.1 39.9,-76.1 59.8,-114.2 5.9,-11.2 22.8,-1.3 17,9.9 -70.5,134.4 -141,268.9 -211.4,403.3 -20,38.1 -40,76.2 -59.9,114.2 -5.9,11.2 -22.8,1.3 -16.9,-9.9 v 0" /><path
         id="path194"
         style="fill:#8c6254;fill-opacity:1;fill-rule:nonzero;stroke:none"
         d="m 10547.5,4485.9 c 76.7,-107.4 146.2,-219.8 208,-336.5 17.6,-33.2 34.5,-66.7 50.8,-100.6 5.5,-11.3 22.4,-1.4 16.9,9.9 -57.3,118.9 -122.4,234 -195,344.2 -20.7,31.4 -41.9,62.4 -63.8,92.9 -7.2,10.2 -24.3,0.4 -16.9,-9.9 v 0" /><path
         id="path196"
         style="fill:#8c6254;fill-opacity:1;fill-rule:nonzero;stroke:none"
         d="m 11782.8,5528 c 99.5,-74.8 199.5,-148.9 300.1,-222.4 100.5,-73.4 201.6,-146.1 303.1,-218.2 57.6,-40.8 115.2,-81.4 173.1,-121.7 10.4,-7.3 20.2,9.7 9.9,16.9 -102.1,71.3 -203.7,143.2 -304.8,215.9 -101.2,72.6 -201.8,145.9 -301.9,220 -56.7,41.9 -113.2,84 -169.6,126.4 -10.1,7.6 -19.9,-9.4 -9.9,-16.9 v 0" /><path
         id="path198"
         style="fill:#4d5cb0;fill-opacity:1;fill-rule:nonzero;stroke:none"
         d="m 14397.2,0 h -2749.3 l 300,2188 2349.3,-200 100,-1988" /><path
         id="path200"
         style="fill:#151c28;fill-opacity:1;fill-rule:nonzero;stroke:none"
         d="m 10582.1,4470.9 c 0.1,2.9 0.1,5.9 0.3,8.8 6.3,165.1 68.9,283.4 181.8,345.2 l 41.9,-79.9 c -158.8,-89.7 -141,-319.5 -121.5,-431.2 l -102.5,157.1" /><path
         id="path202"
         style="fill:#e2bc5d;fill-opacity:1;fill-rule:nonzero;stroke:none"
         d="m 4007.93,9367.53 c 0,-787.31 -638.24,-1425.56 -1425.56,-1425.56 -787.31,0 -1425.56,638.25 -1425.56,1425.56 0,787.37 638.25,1425.57 1425.56,1425.57 787.32,0 1425.56,-638.2 1425.56,-1425.57" /><path
         id="path204"
         style="fill:#00000a;fill-opacity:1;fill-rule:nonzero;stroke:none"
         d="m 2388.4,9560.72 c 0,-73.88 -59.88,-133.76 -133.75,-133.76 -73.87,0 -133.76,59.88 -133.76,133.76 0,73.87 59.89,133.75 133.76,133.75 73.87,0 133.75,-59.88 133.75,-133.75" /><path
         id="path206"
         style="fill:#00000a;fill-opacity:1;fill-rule:nonzero;stroke:none"
         d="m 3043.85,9560.72 c 0,-73.88 -59.88,-133.76 -133.76,-133.76 -73.87,0 -133.75,59.88 -133.75,133.76 0,73.87 59.88,133.75 133.75,133.75 73.88,0 133.76,-59.88 133.76,-133.75" /><path
         id="path208"
         style="fill:#00000a;fill-opacity:1;fill-rule:nonzero;stroke:none"
         d="m 2910.09,9005.65 h -655.44 v 69.89 h 655.44 v -69.89" /><path
         id="path210"
         style="fill:#c8534e;fill-opacity:1;fill-rule:nonzero;stroke:none"
         d="m 9536.89,12233.2 c 0,-787.3 -638.24,-1425.6 -1425.56,-1425.6 -787.31,0 -1425.56,638.3 -1425.56,1425.6 0,787.3 638.25,1425.6 1425.56,1425.6 787.32,0 1425.56,-638.3 1425.56,-1425.6" /><path
         id="path212"
         style="fill:#00000a;fill-opacity:1;fill-rule:nonzero;stroke:none"
         d="m 7917.37,12475.5 c 0,-73.9 -59.89,-133.8 -133.76,-133.8 -73.87,0 -133.76,59.9 -133.76,133.8 0,73.9 59.89,133.8 133.76,133.8 73.87,0 133.76,-59.9 133.76,-133.8" /><path
         id="path214"
         style="fill:#00000a;fill-opacity:1;fill-rule:nonzero;stroke:none"
         d="m 8572.81,12475.5 c 0,-73.9 -59.88,-133.8 -133.75,-133.8 -73.88,0 -133.76,59.9 -133.76,133.8 0,73.9 59.88,133.8 133.76,133.8 73.87,0 133.75,-59.9 133.75,-133.8" /><path
         id="path216"
         style="fill:#00000a;fill-opacity:1;fill-rule:nonzero;stroke:none"
         d="m 8399.31,11840.8 c -57.93,109.7 -168.28,177.9 -287.97,177.9 -119.71,0 -230.06,-68.2 -287.98,-177.9 l -61.81,32.7 c 70.06,132.6 204.09,215.1 349.79,215.1 145.68,0 279.71,-82.5 349.78,-215.1 l -61.81,-32.7" /><path
         id="path218"
         style="fill:#84a3a3;fill-opacity:1;fill-rule:nonzero;stroke:none"
         d="m 12905,8202.78 c 0,-787.32 -638.3,-1425.58 -1425.6,-1425.58 -787.3,0 -1425.5,638.26 -1425.5,1425.58 0,787.31 638.2,1425.56 1425.5,1425.56 787.3,0 1425.6,-638.25 1425.6,-1425.56" /><path
         id="path220"
         style="fill:#00000a;fill-opacity:1;fill-rule:nonzero;stroke:none"
         d="m 11285.5,8445.08 c 0,-73.88 -59.9,-133.76 -133.8,-133.76 -73.9,0 -133.8,59.88 -133.8,133.76 0,73.87 59.9,133.75 133.8,133.75 73.9,0 133.8,-59.88 133.8,-133.75" /><path
         id="path222"
         style="fill:#00000a;fill-opacity:1;fill-rule:nonzero;stroke:none"
         d="m 11940.9,8445.08 c 0,-73.88 -59.9,-133.76 -133.8,-133.76 -73.8,0 -133.7,59.88 -133.7,133.76 0,73.87 59.9,133.75 133.7,133.75 73.9,0 133.8,-59.88 133.8,-133.75" /><path
         id="path224"
         style="fill:#00000a;fill-opacity:1;fill-rule:nonzero;stroke:none"
         d="m 11479.4,7791.78 c -145.7,0 -279.7,82.42 -349.8,215.08 l 61.8,32.65 c 58,-109.7 168.3,-177.84 288,-177.84 119.7,0 230.1,68.14 288,177.84 l 61.8,-32.65 c -70.1,-132.66 -204.1,-215.08 -349.8,-215.08" /><g
         transform="scale(1.04415)"
         id="g226"><path
           id="path228"
           style="fill:#e2bc5d;fill-opacity:1;fill-rule:nonzero;stroke:none"
           d="m 16300,8755.56 c 0,-754.02 -611.2,-1365.28 -1365.3,-1365.28 -754,0 -1365.2,611.26 -1365.2,1365.28 0,754.02 611.2,1365.24 1365.2,1365.24 754.1,0 1365.3,-611.22 1365.3,-1365.24" /></g><path
         id="path230"
         style="fill:#00000a;fill-opacity:1;fill-rule:nonzero;stroke:none"
         d="m 15400.2,9335.33 c 0,-73.87 -59.9,-133.76 -133.8,-133.76 -73.9,0 -133.7,59.89 -133.7,133.76 0,73.87 59.8,133.76 133.7,133.76 73.9,0 133.8,-59.89 133.8,-133.76" /><path
         id="path232"
         style="fill:#00000a;fill-opacity:1;fill-rule:nonzero;stroke:none"
         d="m 16055.6,9335.33 c 0,-73.87 -59.9,-133.76 -133.7,-133.76 -73.9,0 -133.8,59.89 -133.8,133.76 0,73.87 59.9,133.76 133.8,133.76 73.8,0 133.7,-59.89 133.7,-133.76" /><path
         id="path234"
         style="fill:#00000a;fill-opacity:1;fill-rule:nonzero;stroke:none"
         d="m 15921.9,8780.26 h -655.5 v 69.89 h 655.5 v -69.89" /><g
         transform="scale(1.40124)"
         id="g236"><path
           id="path238"
           style="fill:#84a3a3;fill-opacity:1;fill-rule:nonzero;stroke:none"
           d="m 16300,7487.27 c 0,-561.88 -455.5,-1017.36 -1017.4,-1017.36 -561.8,0 -1017.3,455.48 -1017.3,1017.36 0,561.86 455.5,1017.35 1017.3,1017.35 561.9,0 1017.4,-455.49 1017.4,-1017.35" /></g><g
         transform="scale(1.30188)"
         id="g240"><path
           id="path242"
           style="fill:#00000a;fill-opacity:1;fill-rule:nonzero;stroke:none"
           d="m 16300,8244.78 c 0,-56.74 -46,-102.74 -102.8,-102.74 -56.7,0 -102.7,46 -102.7,102.74 0,56.75 46,102.74 102.7,102.74 56.8,0 102.8,-45.99 102.8,-102.74" /></g><g
         transform="scale(1.34209)"
         id="g244"><path
           id="path246"
           style="fill:#00000a;fill-opacity:1;fill-rule:nonzero;stroke:none"
           d="m 16300,7997.77 c 0,-55.04 -44.6,-99.66 -99.7,-99.66 -55,0 -99.6,44.62 -99.6,99.66 0,55.05 44.6,99.66 99.6,99.66 55.1,0 99.7,-44.61 99.7,-99.66" /></g><g
         transform="scale(1.33524)"
         id="g248"><path
           id="path250"
           style="fill:#00000a;fill-opacity:1;fill-rule:nonzero;stroke:none"
           d="m 16038,7549.55 c -109.1,0 -209.4,61.72 -261.9,161.08 l 46.2,24.45 c 43.5,-82.16 126.1,-133.19 215.7,-133.19 89.7,0 172.4,51.03 215.7,133.19 l 46.3,-24.45 c -52.5,-99.36 -152.9,-161.08 -262,-161.08" /></g></g></g></svg>